<?xml version="1.0" encoding="UTF-8" standalone="no"?>
<svg width="372.75" xmlns="http://www.w3.org/2000/svg" xmlns:xlink="http://www.w3.org/1999/xlink" height="372.75">
 <g id="layer1" externalResourcesRequired="false">
  <g id="g6534" externalResourcesRequired="false">
   <g id="g3848" externalResourcesRequired="false" transform="matrix(.55667 0 0 .50363 202.17 427.43)">
    <path id="path3812" d="m15.853-239.74c0 26.944-21.843 48.787-48.787 48.787s-48.787-21.843-48.787-48.787 21.843-48.787 48.787-48.787 48.787 21.843 48.787 48.787z"/>
    <path id="path3814" d="m-22.778-577.73c-88.706 0-167.25 33.723-215.5 85.562l40 61.656c35.116-46.921 100.55-78.469 175.5-78.469 69.397 0 130.64 27.063 167.22 68.312l41.469-58.531c-48.658-47.848-124.05-78.531-208.69-78.531z"/>
    <path id="path3822" d="m-29.903-423.45c-50.457 0-96.517 18.781-131.56 49.688l33.781 52.094c26.406-22.235 60.515-35.656 97.781-35.656 34.984 0 67.177 11.815 92.844 31.656l35.844-50.625c-34.677-29.42-79.598-47.156-128.69-47.156z"/>
    <path id="path3824" d="m-23.91-730.88c-116.58 0-221.31 45.127-293.44 116.81l37.906 58.406c53.301-61.704 147.01-102.69 253.78-102.69 105.95 0 199.07 40.34 252.59 101.25l41.312-58.281c-72.107-70.929-176.27-115.5-292.16-115.5z"/>
   </g>
  </g>
 </g>
</svg>
